<?xml version="1.0" encoding="utf-8"?>
<!-- Generator: Adobe Illustrator 22.0.0, SVG Export Plug-In . SVG Version: 6.00 Build 0)  -->
<svg version="1.1" id="레이어_1" xmlns="http://www.w3.org/2000/svg" xmlns:xlink="http://www.w3.org/1999/xlink" x="0px"
	 y="0px" viewBox="0 0 140 89" style="enable-background:new 0 0 140 89;" xml:space="preserve">
<style type="text/css">
	.st0{fill:#446B72;}
	.st1{fill:#517A81;}
	.st2{fill:#5E898F;}
	.st3{fill:#6B989E;}
	.st4{fill:#79A6AC;}
	.st5{fill:#86B5BA;}
	.st6{fill:#93C4C9;}
	.st7{fill:url(#SVGID_1_);}
	.st8{fill:#4584A8;}
	.st9{fill:url(#SVGID_2_);}
	.st10{fill:#68858E;}
	.st11{fill:url(#SVGID_3_);}
	.st12{fill:url(#SVGID_4_);}
	.st13{fill:#B5E8E6;}
	.st14{fill:#B2E4E2;}
	.st15{fill:#AFE0DF;}
	.st16{fill:#ACDDDC;}
	.st17{fill:#A9D9D8;}
	.st18{fill:#A6D5D5;}
	.st19{fill:#A3D1D1;}
	.st20{fill:#79A1AA;}
	.st21{fill:#7399A1;}
	.st22{fill:#6D9298;}
	.st23{fill:#678B90;}
	.st24{fill:#608387;}
	.st25{fill:#5A7C7E;}
	.st26{fill:#547475;}
	.st27{fill:#E6EDEF;stroke:#3BA4BC;stroke-width:0.5;stroke-miterlimit:10;}
	.st28{opacity:0.1;}
	.st29{fill:#999999;stroke:#20506B;stroke-miterlimit:10;}
	.st30{fill:none;stroke:#20506B;stroke-miterlimit:10;}
	.st31{fill:#0071BC;}
	.st32{font-family:'ChalkboardSE-Regular';}
	.st33{font-size:16px;}
	.st34{fill:#1B1464;}
	.st35{font-size:30.7677px;}
	.st36{fill:none;stroke:#978C9B;stroke-linecap:round;stroke-miterlimit:10;}
	.st37{font-family:'AmericanTypewriter';}
	.st38{font-size:12px;}
</style>
<g>
	<g>
		<g>
			<path class="st0" d="M136,88H6.3c-2.8,0-5.2-2.3-5.2-5.2V5.2C1.1,2.3,3.5,0,6.3,0H136c2.8,0,5.2,2.3,5.2,5.2v77.7
				C141.1,85.7,138.8,88,136,88z"/>
		</g>
		<g>
			<path class="st1" d="M6.3,87.7c-2.7,0-4.8-2.2-4.8-4.8V5.2c0-2.7,2.2-4.8,4.8-4.8H136c2.7,0,4.8,2.2,4.8,4.8v77.7
				c0,2.7-2.2,4.8-4.8,4.8H6.3z"/>
		</g>
		<g>
			<path class="st2" d="M6.3,87.3c-2.5,0-4.5-2-4.5-4.5V5.2c0-2.5,2-4.5,4.5-4.5H136c2.5,0,4.5,2,4.5,4.5v77.7c0,2.5-2,4.5-4.5,4.5
				H6.3z"/>
		</g>
		<g>
			<path class="st3" d="M6.3,87c-2.3,0-4.2-1.9-4.2-4.2V5.2C2.1,2.9,4,1,6.3,1H136c2.3,0,4.2,1.9,4.2,4.2v77.7
				c0,2.3-1.9,4.2-4.2,4.2H6.3z"/>
		</g>
		<g>
			<path class="st4" d="M6.3,86.7c-2.1,0-3.8-1.7-3.8-3.8V5.2c0-2.1,1.7-3.8,3.8-3.8H136c2.1,0,3.8,1.7,3.8,3.8v77.7
				c0,2.1-1.7,3.8-3.8,3.8H6.3z"/>
		</g>
		<g>
			<path class="st5" d="M6.3,86.3c-1.9,0-3.5-1.6-3.5-3.5V5.2c0-1.9,1.6-3.5,3.5-3.5H136c1.9,0,3.5,1.6,3.5,3.5v77.7
				c0,1.9-1.6,3.5-3.5,3.5H6.3z"/>
		</g>
		<g>
			<path class="st6" d="M6.3,86c-1.7,0-3.2-1.4-3.2-3.2V5.2C3.1,3.4,4.6,2,6.3,2H136c1.7,0,3.2,1.4,3.2,3.2v77.7
				c0,1.7-1.4,3.2-3.2,3.2H6.3z"/>
		</g>
	</g>
	<g>
		<g>
			
				<radialGradient id="SVGID_1_" cx="277.0998" cy="-588.3712" r="3" gradientTransform="matrix(0.5137 -0.858 0.858 0.5137 368.8796 622.2218)" gradientUnits="userSpaceOnUse">
				<stop  offset="0" style="stop-color:#B6E8FF"/>
				<stop  offset="0.268" style="stop-color:#B3E5FD"/>
				<stop  offset="0.4868" style="stop-color:#AADBF5"/>
				<stop  offset="0.6882" style="stop-color:#9ACAE9"/>
				<stop  offset="0.8781" style="stop-color:#85B2D7"/>
				<stop  offset="1" style="stop-color:#739EC9"/>
			</radialGradient>
			<circle class="st7" cx="6.4" cy="82.2" r="3"/>
		</g>
		<rect x="5.9" y="80.8" transform="matrix(0.5137 -0.858 0.858 0.5137 -67.4602 45.4881)" class="st8" width="1" height="3"/>
	</g>
	<g>
		<g>
			
				<radialGradient id="SVGID_2_" cx="450.7666" cy="-714.5085" r="3" gradientTransform="matrix(0.3667 -0.9304 0.9304 0.3667 505.855 686.3605)" gradientUnits="userSpaceOnUse">
				<stop  offset="0" style="stop-color:#B6E8FF"/>
				<stop  offset="0.268" style="stop-color:#B3E5FD"/>
				<stop  offset="0.4868" style="stop-color:#AADBF5"/>
				<stop  offset="0.6882" style="stop-color:#9ACAE9"/>
				<stop  offset="0.8781" style="stop-color:#85B2D7"/>
				<stop  offset="1" style="stop-color:#739EC9"/>
			</radialGradient>
			<circle class="st9" cx="6.4" cy="5" r="3"/>
		</g>
		<rect x="5.9" y="3.5" transform="matrix(0.3667 -0.9304 0.9304 0.3667 -0.6019 9.1158)" class="st10" width="1" height="3"/>
	</g>
	<g>
		<g>
			
				<radialGradient id="SVGID_3_" cx="520.0222" cy="989.037" r="3" gradientTransform="matrix(0.4454 0.8953 -0.8953 0.4454 789.5231 -823.8743)" gradientUnits="userSpaceOnUse">
				<stop  offset="0" style="stop-color:#B6E8FF"/>
				<stop  offset="0.268" style="stop-color:#B3E5FD"/>
				<stop  offset="0.4868" style="stop-color:#AADBF5"/>
				<stop  offset="0.6882" style="stop-color:#9ACAE9"/>
				<stop  offset="0.8781" style="stop-color:#85B2D7"/>
				<stop  offset="1" style="stop-color:#739EC9"/>
			</radialGradient>
			<circle class="st11" cx="135.6" cy="82.2" r="3"/>
		</g>
		<rect x="134.1" y="81.8" transform="matrix(0.8953 -0.4454 0.4454 0.8953 -22.4367 69.029)" class="st8" width="3" height="1"/>
	</g>
	<g>
		<g>
			
				<radialGradient id="SVGID_4_" cx="4.869" cy="203.0127" r="3" gradientTransform="matrix(0.9995 -3.235973e-02 3.235973e-02 0.9995 124.2095 -197.7489)" gradientUnits="userSpaceOnUse">
				<stop  offset="0" style="stop-color:#B6E8FF"/>
				<stop  offset="0.268" style="stop-color:#B3E5FD"/>
				<stop  offset="0.4868" style="stop-color:#AADBF5"/>
				<stop  offset="0.6882" style="stop-color:#9ACAE9"/>
				<stop  offset="0.8781" style="stop-color:#85B2D7"/>
				<stop  offset="1" style="stop-color:#739EC9"/>
			</radialGradient>
			<circle class="st12" cx="135.6" cy="5" r="3"/>
		</g>
		
			<rect x="135.1" y="3.5" transform="matrix(0.9995 -3.235973e-02 3.235973e-02 0.9995 -9.076001e-02 4.3921)" class="st8" width="1" height="3"/>
	</g>
	<g>
		<path class="st13" d="M118.1,88l-3.9-10.5c-0.6-1.5-2-2.5-3.6-2.5h-81c-1.6,0-3,1-3.6,2.5L22.1,88H118.1z"/>
		<path class="st14" d="M118.3,88.2l-3.9-10.5c-0.6-1.5-2-2.5-3.6-2.5h-81c-1.6,0-3,1-3.6,2.5l-3.9,10.5H118.3z"/>
		<path class="st15" d="M118.5,88.3l-3.9-10.5c-0.6-1.5-2-2.5-3.6-2.5H30c-1.6,0-3,1-3.6,2.5l-3.9,10.5H118.5z"/>
		<path class="st16" d="M118.6,88.5L114.8,78c-0.6-1.5-2-2.5-3.6-2.5h-81c-1.6,0-3,1-3.6,2.5l-3.9,10.5H118.6z"/>
		<path class="st17" d="M118.8,88.7l-3.9-10.5c-0.6-1.5-2-2.5-3.6-2.5h-81c-1.6,0-3,1-3.6,2.5l-3.9,10.5H118.8z"/>
		<path class="st18" d="M119,88.8l-3.9-10.5c-0.6-1.5-2-2.5-3.6-2.5h-81c-1.6,0-3,1-3.6,2.5L23,88.8H119z"/>
		<path class="st19" d="M119.1,89l-3.9-10.5c-0.6-1.5-2-2.5-3.6-2.5h-81c-1.6,0-3,1-3.6,2.5L23.1,89H119.1z"/>
	</g>
	<g>
		<circle class="st20" cx="51.6" cy="82.5" r="2.5"/>
		<circle class="st21" cx="51.6" cy="82.5" r="2.3"/>
		<circle class="st22" cx="51.6" cy="82.5" r="2.2"/>
		<circle class="st23" cx="51.6" cy="82.5" r="2"/>
		<circle class="st24" cx="51.6" cy="82.5" r="1.8"/>
		<circle class="st25" cx="51.6" cy="82.5" r="1.7"/>
		<circle class="st26" cx="51.6" cy="82.5" r="1.5"/>
	</g>
	<g>
		<circle class="st20" cx="90.6" cy="82.5" r="2.5"/>
		<circle class="st21" cx="90.6" cy="82.5" r="2.3"/>
		<circle class="st22" cx="90.6" cy="82.5" r="2.2"/>
		<circle class="st23" cx="90.6" cy="82.5" r="2"/>
		<circle class="st24" cx="90.6" cy="82.5" r="1.8"/>
		<circle class="st25" cx="90.6" cy="82.5" r="1.7"/>
		<circle class="st26" cx="90.6" cy="82.5" r="1.5"/>
	</g>
	<g>
		<circle class="st20" cx="70.6" cy="79.5" r="2.5"/>
		<circle class="st21" cx="70.6" cy="79.5" r="2.3"/>
		<circle class="st22" cx="70.6" cy="79.5" r="2.2"/>
		<circle class="st23" cx="70.6" cy="79.5" r="2"/>
		<circle class="st24" cx="70.6" cy="79.5" r="1.8"/>
		<circle class="st25" cx="70.6" cy="79.5" r="1.7"/>
		<circle class="st26" cx="70.6" cy="79.5" r="1.5"/>
	</g>
	<path class="st27" d="M10.1,15.5c0-0.6,0.3-1.3,0.7-1.7L15,9.2c0.4-0.4,1.1-0.7,1.7-0.7h110c0.5,0,1.3,0.3,1.7,0.7l3.6,3.6
		c0.4,0.4,0.7,1.2,0.7,1.7v57c0,0.6-0.4,1-1,1H11.1c-0.6,0-1-0.4-1-1V15.5z"/>
	<g class="st28">
		<path class="st29" d="M100.1,52h-59c-6.3,0-11.5-5.2-11.5-11.5v0c0-6.3,5.2-11.5,11.5-11.5h59c6.3,0,11.5,5.2,11.5,11.5v0
			C111.6,46.8,106.5,52,100.1,52z"/>
		<circle class="st30" cx="41.7" cy="41.1" r="7.1"/>
		<circle class="st30" cx="100.1" cy="41.1" r="7.1"/>
		<rect x="56.6" y="38.7" class="st26" width="28.2" height="4"/>
	</g>
</g>
<g>
</g>
<text transform="matrix(1 0 0 1 62.0399 25.224)"><tspan x="0" y="0" class="st31 st32 st33">02</tspan><tspan x="-17.5" y="26" class="st34 st32 st35">BTS</tspan></text>
<line class="st36" x1="21.5" y1="57" x2="120.8" y2="57"/>
<text transform="matrix(1 0 0 1 37.1785 67.8824)" class="st37 st38">FAKE LOVE</text>
</svg>
