<?xml version="1.0" encoding="utf-8"?>
<!-- Generator: Adobe Illustrator 22.0.0, SVG Export Plug-In . SVG Version: 6.00 Build 0)  -->
<svg version="1.1" id="레이어_1" xmlns="http://www.w3.org/2000/svg" xmlns:xlink="http://www.w3.org/1999/xlink" x="0px"
	 y="0px" viewBox="0 0 140 89" style="enable-background:new 0 0 140 89;" xml:space="preserve">
<style type="text/css">
	.st0{fill:#446B72;}
	.st1{fill:#517A81;}
	.st2{fill:#5E898F;}
	.st3{fill:#6B989E;}
	.st4{fill:#79A6AC;}
	.st5{fill:#86B5BA;}
	.st6{fill:#93C4C9;}
	.st7{fill:url(#SVGID_1_);}
	.st8{fill:#4584A8;}
	.st9{fill:url(#SVGID_2_);}
	.st10{fill:#68858E;}
	.st11{fill:url(#SVGID_3_);}
	.st12{fill:url(#SVGID_4_);}
	.st13{fill:#B5E8E6;}
	.st14{fill:#B2E4E2;}
	.st15{fill:#AFE0DF;}
	.st16{fill:#ACDDDC;}
	.st17{fill:#A9D9D8;}
	.st18{fill:#A6D5D5;}
	.st19{fill:#A3D1D1;}
	.st20{fill:#79A1AA;}
	.st21{fill:#7399A1;}
	.st22{fill:#6D9298;}
	.st23{fill:#678B90;}
	.st24{fill:#608387;}
	.st25{fill:#5A7C7E;}
	.st26{fill:#547475;}
	.st27{fill:#E6EDEF;stroke:#3BA4BC;stroke-width:0.5;stroke-miterlimit:10;}
	.st28{opacity:0.1;}
	.st29{fill:#999999;stroke:#20506B;stroke-miterlimit:10;}
	.st30{fill:none;stroke:#20506B;stroke-miterlimit:10;}
	.st31{fill:#0071BC;}
	.st32{font-family:'ChalkboardSE-Regular';}
	.st33{font-size:16px;}
	.st34{fill:#1B1464;}
	.st35{font-size:23px;}
	.st36{letter-spacing:-1.1;}
	.st37{fill:none;stroke:#978C9B;stroke-linecap:round;stroke-miterlimit:10;}
	.st38{font-family:'AmericanTypewriter';}
	.st39{font-size:12px;}
</style>
<g>
	<g>
		<g>
			<path class="st0" d="M134.8,88.2H5.2C2.3,88.2,0,85.8,0,83V5.3c0-2.8,2.3-5.2,5.2-5.2h129.7c2.8,0,5.2,2.3,5.2,5.2V83
				C140,85.8,137.7,88.2,134.8,88.2z"/>
		</g>
		<g>
			<path class="st1" d="M5.2,87.8c-2.7,0-4.8-2.2-4.8-4.8V5.3c0-2.7,2.2-4.8,4.8-4.8h129.7c2.7,0,4.8,2.2,4.8,4.8V83
				c0,2.7-2.2,4.8-4.8,4.8H5.2z"/>
		</g>
		<g>
			<path class="st2" d="M5.2,87.5c-2.5,0-4.5-2-4.5-4.5V5.3c0-2.5,2-4.5,4.5-4.5h129.7c2.5,0,4.5,2,4.5,4.5V83c0,2.5-2,4.5-4.5,4.5
				H5.2z"/>
		</g>
		<g>
			<path class="st3" d="M5.2,87.2C2.9,87.2,1,85.3,1,83V5.3C1,3,2.9,1.2,5.2,1.2h129.7c2.3,0,4.2,1.9,4.2,4.2V83
				c0,2.3-1.9,4.2-4.2,4.2H5.2z"/>
		</g>
		<g>
			<path class="st4" d="M5.2,86.8c-2.1,0-3.8-1.7-3.8-3.8V5.3c0-2.1,1.7-3.8,3.8-3.8h129.7c2.1,0,3.8,1.7,3.8,3.8V83
				c0,2.1-1.7,3.8-3.8,3.8H5.2z"/>
		</g>
		<g>
			<path class="st5" d="M5.2,86.5c-1.9,0-3.5-1.6-3.5-3.5V5.3c0-1.9,1.6-3.5,3.5-3.5h129.7c1.9,0,3.5,1.6,3.5,3.5V83
				c0,1.9-1.6,3.5-3.5,3.5H5.2z"/>
		</g>
		<g>
			<path class="st6" d="M5.2,86.2C3.4,86.2,2,84.7,2,83V5.3c0-1.7,1.4-3.2,3.2-3.2h129.7c1.7,0,3.2,1.4,3.2,3.2V83
				c0,1.7-1.4,3.2-3.2,3.2H5.2z"/>
		</g>
	</g>
	<g>
		<g>
			
				<radialGradient id="SVGID_1_" cx="276.3689" cy="-589.2676" r="3" gradientTransform="matrix(0.5137 -0.858 0.858 0.5137 368.8796 622.2218)" gradientUnits="userSpaceOnUse">
				<stop  offset="0" style="stop-color:#B6E8FF"/>
				<stop  offset="0.268" style="stop-color:#B3E5FD"/>
				<stop  offset="0.4868" style="stop-color:#AADBF5"/>
				<stop  offset="0.6882" style="stop-color:#9ACAE9"/>
				<stop  offset="0.8781" style="stop-color:#85B2D7"/>
				<stop  offset="1" style="stop-color:#739EC9"/>
			</radialGradient>
			<circle class="st7" cx="5.2" cy="82.4" r="3"/>
		</g>
		<rect x="4.8" y="80.9" transform="matrix(0.5137 -0.858 0.858 0.5137 -68.1598 44.5872)" class="st8" width="1" height="3"/>
	</g>
	<g>
		<g>
			
				<radialGradient id="SVGID_2_" cx="450.1918" cy="-715.5123" r="3" gradientTransform="matrix(0.3667 -0.9304 0.9304 0.3667 505.855 686.3605)" gradientUnits="userSpaceOnUse">
				<stop  offset="0" style="stop-color:#B6E8FF"/>
				<stop  offset="0.268" style="stop-color:#B3E5FD"/>
				<stop  offset="0.4868" style="stop-color:#AADBF5"/>
				<stop  offset="0.6882" style="stop-color:#9ACAE9"/>
				<stop  offset="0.8781" style="stop-color:#85B2D7"/>
				<stop  offset="1" style="stop-color:#739EC9"/>
			</radialGradient>
			<circle class="st9" cx="5.2" cy="5.2" r="3"/>
		</g>
		<rect x="4.8" y="3.7" transform="matrix(0.3667 -0.9304 0.9304 0.3667 -1.4819 8.1566)" class="st10" width="1" height="3"/>
	</g>
	<g>
		<g>
			
				<radialGradient id="SVGID_3_" cx="519.6617" cy="990.136" r="3" gradientTransform="matrix(0.4454 0.8953 -0.8953 0.4454 789.5231 -823.8743)" gradientUnits="userSpaceOnUse">
				<stop  offset="0" style="stop-color:#B6E8FF"/>
				<stop  offset="0.268" style="stop-color:#B3E5FD"/>
				<stop  offset="0.4868" style="stop-color:#AADBF5"/>
				<stop  offset="0.6882" style="stop-color:#9ACAE9"/>
				<stop  offset="0.8781" style="stop-color:#85B2D7"/>
				<stop  offset="1" style="stop-color:#739EC9"/>
			</radialGradient>
			<circle class="st11" cx="134.5" cy="82.4" r="3"/>
		</g>
		<rect x="133" y="81.9" transform="matrix(0.8953 -0.4454 0.4454 0.8953 -22.6307 68.5366)" class="st8" width="3" height="1"/>
	</g>
	<g>
		<g>
			
				<radialGradient id="SVGID_4_" cx="3.7196" cy="203.1423" r="3" gradientTransform="matrix(0.9995 -3.235973e-02 3.235973e-02 0.9995 124.2095 -197.7489)" gradientUnits="userSpaceOnUse">
				<stop  offset="0" style="stop-color:#B6E8FF"/>
				<stop  offset="0.268" style="stop-color:#B3E5FD"/>
				<stop  offset="0.4868" style="stop-color:#AADBF5"/>
				<stop  offset="0.6882" style="stop-color:#9ACAE9"/>
				<stop  offset="0.8781" style="stop-color:#85B2D7"/>
				<stop  offset="1" style="stop-color:#739EC9"/>
			</radialGradient>
			<circle class="st12" cx="134.5" cy="5.2" r="3"/>
		</g>
		
			<rect x="134" y="3.7" transform="matrix(0.9995 -3.235973e-02 3.235973e-02 0.9995 -9.675270e-02 4.3551)" class="st8" width="1" height="3"/>
	</g>
	<g>
		<path class="st13" d="M117,88.2l-3.9-10.5c-0.6-1.5-2-2.5-3.6-2.5h-81c-1.6,0-3,1-3.6,2.5L21,88.2H117z"/>
		<path class="st14" d="M117.2,88.3l-3.9-10.5c-0.6-1.5-2-2.5-3.6-2.5h-81c-1.6,0-3,1-3.6,2.5l-3.9,10.5H117.2z"/>
		<path class="st15" d="M117.3,88.5L113.5,78c-0.6-1.5-2-2.5-3.6-2.5h-81c-1.6,0-3,1-3.6,2.5l-3.9,10.5H117.3z"/>
		<path class="st16" d="M117.5,88.7l-3.9-10.5c-0.6-1.5-2-2.5-3.6-2.5H29c-1.6,0-3,1-3.6,2.5l-3.9,10.5H117.5z"/>
		<path class="st17" d="M117.7,88.8l-3.9-10.5c-0.6-1.5-2-2.5-3.6-2.5h-81c-1.6,0-3,1-3.6,2.5l-3.9,10.5H117.7z"/>
		<path class="st18" d="M117.8,89L114,78.5c-0.6-1.5-2-2.5-3.6-2.5h-81c-1.6,0-3,1-3.6,2.5L21.8,89H117.8z"/>
		<path class="st19" d="M118,89.2l-3.9-10.5c-0.6-1.5-2-2.5-3.6-2.5h-81c-1.6,0-3,1-3.6,2.5L22,89.2H118z"/>
	</g>
	<g>
		<circle class="st20" cx="50.5" cy="82.7" r="2.5"/>
		<circle class="st21" cx="50.5" cy="82.7" r="2.3"/>
		<circle class="st22" cx="50.5" cy="82.7" r="2.2"/>
		<circle class="st23" cx="50.5" cy="82.7" r="2"/>
		<circle class="st24" cx="50.5" cy="82.7" r="1.8"/>
		<circle class="st25" cx="50.5" cy="82.7" r="1.7"/>
		<circle class="st26" cx="50.5" cy="82.7" r="1.5"/>
	</g>
	<g>
		<circle class="st20" cx="89.5" cy="82.7" r="2.5"/>
		<circle class="st21" cx="89.5" cy="82.7" r="2.3"/>
		<circle class="st22" cx="89.5" cy="82.7" r="2.2"/>
		<circle class="st23" cx="89.5" cy="82.7" r="2"/>
		<circle class="st24" cx="89.5" cy="82.7" r="1.8"/>
		<circle class="st25" cx="89.5" cy="82.7" r="1.7"/>
		<circle class="st26" cx="89.5" cy="82.7" r="1.5"/>
	</g>
	<g>
		<circle class="st20" cx="69.5" cy="79.7" r="2.5"/>
		<circle class="st21" cx="69.5" cy="79.7" r="2.3"/>
		<circle class="st22" cx="69.5" cy="79.7" r="2.2"/>
		<circle class="st23" cx="69.5" cy="79.7" r="2"/>
		<circle class="st24" cx="69.5" cy="79.7" r="1.8"/>
		<circle class="st25" cx="69.5" cy="79.7" r="1.7"/>
		<circle class="st26" cx="69.5" cy="79.7" r="1.5"/>
	</g>
	<path class="st27" d="M9,15.7c0-0.6,0.3-1.3,0.7-1.7l4.1-4.5c0.4-0.4,1.1-0.7,1.7-0.7h110c0.6,0,1.3,0.3,1.7,0.7l3.6,3.6
		c0.4,0.4,0.7,1.2,0.7,1.7v57c0,0.6-0.4,1-1,1H10c-0.6,0-1-0.4-1-1V15.7z"/>
	<g class="st28">
		<path class="st29" d="M99,52.2H40c-6.3,0-11.5-5.2-11.5-11.5v0c0-6.3,5.2-11.5,11.5-11.5h59c6.3,0,11.5,5.2,11.5,11.5v0
			C110.5,47,105.3,52.2,99,52.2z"/>
		<circle class="st30" cx="40.6" cy="41.2" r="7.1"/>
		<circle class="st30" cx="98.9" cy="41.2" r="7.1"/>
		<rect x="55.5" y="38.8" class="st26" width="28.2" height="4"/>
	</g>
</g>
<g>
</g>
<text transform="matrix(1 0 0 1 61.3402 25.3907)" class="st31 st32 st33">09</text>
<text transform="matrix(0.9 0 0 1 13.4925 51.3907)" class="st34 st32 st35 st36">WANNA ONE</text>
<line class="st37" x1="20.3" y1="57.2" x2="119.7" y2="57.2"/>
<text transform="matrix(1 0 0 1 34.6424 68.0491)" class="st38 st39">Energetic</text>
</svg>
